<svg xmlns="http://www.w3.org/2000/svg" viewBox="-1 -1 258 258" width="258" height="258" role="img" aria-label="ZweTag"><g fill="#FF9933"><polygon points="217.97,51 256,51 256,67.23 174.85,165 123.35,165"/></g><g fill="#9B9B9D"><g transform="rotate(180 128 128)"><polygon points="217.97,51 256,51 256,67.23 174.85,165 123.35,165"/></g></g><g fill="#60A5FA"><path fill-rule="evenodd" d="M 19 0 H 248 A 8 8 0 0 1 256 8 V 51 H 19 L 0 32 V 19 Z M 22 25.5 a 13 13 0 1 0 26 0 a 13 13 0 1 0 -26 0 Z"/><g transform="rotate(180 128 128)"><path fill-rule="evenodd" d="M 19 0 H 248 A 8 8 0 0 1 256 8 V 51 H 19 L 0 32 V 19 Z M 22 25.5 a 13 13 0 1 0 26 0 a 13 13 0 1 0 -26 0 Z"/></g></g></svg>